<svg width="512" height="512" viewBox="0 0 512 512" fill="none" xmlns="http://www.w3.org/2000/svg">
<g clip-path="url(#clip0_75_3)">
<rect width="512" height="512" rx="80" fill="#D9E3DC"/>
<path d="M72.752 100.792H196.016V124.216H219.44V148.024H243.248V365.752H219.44V389.56H196.016V413.752H72.752V100.792ZM191.792 385.336V361.912H215.6V152.248H191.792V128.44H101.168V385.336H191.792ZM264.752 100.792H388.016V124.216H411.44V148.024H435.248V223.288H411.44V247.096H388.016V266.68H411.44V290.488H435.248V365.752H411.44V389.56H388.016V413.752H264.752V100.792ZM383.792 242.872V219.448H407.6V152.248H383.792V128.44H293.168V242.872H383.792ZM383.792 385.336V361.912H407.6V294.712H383.792V270.904H293.168V385.336H383.792Z" fill="black"/>
</g>
<defs>
<clipPath id="clip0_75_3">
<rect width="512" height="512" fill="white"/>
</clipPath>
</defs>
</svg>
